<?xml version="1.0" encoding="UTF-8"?>
<!-- Generator: visioncortex VTracer 0.6.4 -->
<svg version="1.1" xmlns="http://www.w3.org/2000/svg" width="1024" height="1024">
<rect x="0" y="0" width="1024" height="1024" rx="80" ry="80" fill="#18212B"/>
<path d="M0 0 C3.73 1.45 7.12 3.11 10.59 5.1 C11.69 5.73 12.79 6.35 13.92 7 C15.11 7.69 16.31 8.37 17.5 9.06 C18.75 9.78 20 10.5 21.25 11.21 C31.29 16.98 41.28 22.83 51.27 28.7 C60.33 34.03 69.43 39.3 78.54 44.55 C85.71 48.67 92.86 52.83 100 57 C108.32 61.86 116.65 66.69 125 71.5 C133.35 76.31 141.68 81.14 150 86 C166.7 95.75 183.45 105.41 200.24 115 C203.73 116.99 207.22 118.98 210.71 120.98 C213.7 122.69 216.69 124.39 219.68 126.1 C223.27 128.14 226.85 130.2 230.44 132.25 C231.53 132.87 232.62 133.49 233.74 134.13 C234.75 134.71 235.77 135.29 236.81 135.89 C237.69 136.4 238.58 136.9 239.49 137.42 C240.32 137.94 241.15 138.46 242 139 C242.86 139.5 243.73 139.99 244.62 140.51 C248.17 144.22 247.7 147.49 247.63 152.46 C247.64 153.9 247.64 153.9 247.65 155.37 C247.67 158.53 247.65 161.7 247.63 164.87 C247.63 167.07 247.63 169.27 247.64 171.48 C247.64 176.09 247.62 180.71 247.6 185.32 C247.56 191.24 247.57 197.16 247.59 203.07 C247.6 207.62 247.59 212.17 247.57 216.72 C247.57 218.9 247.57 221.08 247.58 223.26 C247.58 226.31 247.56 229.36 247.53 232.41 C247.54 233.76 247.54 233.76 247.55 235.14 C247.49 239.25 247.35 241.44 245.12 244.99 C242.79 247.2 240.56 248.67 237.74 250.2 C236.71 250.76 235.68 251.33 234.63 251.91 C232.99 252.79 232.99 252.79 231.31 253.69 C229.03 254.94 226.74 256.2 224.45 257.45 C223.34 258.06 222.23 258.67 221.08 259.3 C217.2 261.44 213.37 263.67 209.56 265.94 C202.59 270.07 195.58 274.14 188.56 278.19 C187.46 278.83 186.35 279.46 185.21 280.12 C182.94 281.43 180.67 282.74 178.4 284.04 C172.93 287.19 167.46 290.35 162 293.5 C159.83 294.75 157.67 296 155.5 297.25 C154.43 297.87 153.36 298.49 152.25 299.12 C64.5 349.75 64.5 349.75 61.25 351.63 C59.09 352.87 56.93 354.12 54.77 355.36 C49.24 358.55 43.71 361.74 38.18 364.93 C35.93 366.22 33.69 367.52 31.44 368.81 C30.36 369.43 29.28 370.05 28.17 370.69 C23.32 373.49 18.47 376.3 13.66 379.16 C12.86 379.64 12.07 380.11 11.25 380.6 C9.79 381.46 8.34 382.33 6.9 383.21 C2.22 386 2.22 386 0 386 C-0.19 371.63 -0.33 357.26 -0.41 342.89 C-0.46 336.22 -0.51 329.55 -0.6 322.88 C-0.69 316.44 -0.74 310 -0.76 303.56 C-0.77 301.1 -0.8 298.65 -0.85 296.19 C-0.9 292.75 -0.91 289.31 -0.91 285.87 C-0.95 284.35 -0.95 284.35 -1 282.79 C-0.92 276.02 -0.92 276.02 1.74 273.06 C3.76 271.52 5.78 270.24 8 269 C9.43 268.06 9.43 268.06 10.88 267.1 C11.76 266.57 12.65 266.03 13.55 265.48 C14.57 264.86 15.58 264.24 16.63 263.6 C17.7 262.95 18.77 262.3 19.88 261.62 C21.02 260.93 22.16 260.23 23.31 259.53 C25.68 258.07 28.06 256.62 30.44 255.17 C36.07 251.74 41.69 248.27 47.31 244.81 C48.39 244.15 49.48 243.48 50.59 242.8 C57.3 238.67 64 234.53 70.69 230.38 C78.89 225.29 87.13 220.26 95.38 215.25 C103.03 210.6 110.65 205.9 118.26 201.17 C119.08 200.67 119.89 200.16 120.73 199.64 C121.47 199.18 122.22 198.71 122.99 198.23 C124.65 197.21 126.34 196.23 128.02 195.26 C130.14 194.15 130.14 194.15 131 192 C129.94 191.61 129.94 191.61 128.86 191.21 C125.77 189.9 123.06 188.33 120.2 186.58 C119.37 186.07 119.37 186.07 118.52 185.56 C116.72 184.46 114.92 183.35 113.12 182.25 C111.86 181.48 110.6 180.7 109.33 179.93 C106.77 178.37 104.2 176.8 101.64 175.23 C97.48 172.68 93.31 170.15 89.14 167.61 C79.09 161.51 69.07 155.35 59.06 149.18 C51.51 144.53 43.94 139.93 36.36 135.34 C27.5 129.98 18.66 124.6 9.88 119.12 C9.09 118.64 8.31 118.16 7.51 117.67 C6.45 117 6.45 117 5.37 116.32 C4.76 115.94 4.15 115.56 3.53 115.17 C2 114 2 114 0 111 C-0.25 108.9 -0.25 108.9 -0.24 106.43 C-0.24 105.49 -0.25 104.55 -0.25 103.58 C-0.24 102.56 -0.23 101.53 -0.23 100.47 C-0.23 99.39 -0.23 98.3 -0.23 97.19 C-0.23 93.6 -0.21 90.01 -0.2 86.43 C-0.19 83.94 -0.19 81.46 -0.19 78.97 C-0.18 73.1 -0.16 67.22 -0.14 61.35 C-0.12 54 -0.11 46.66 -0.1 39.31 C-0.08 26.21 -0.04 13.1 0 0 Z " fill="#18212B" transform="translate(542,189)"/>
<path d="M0 0 C4.64 1.83 8.97 3.98 13.38 6.31 C14.2 6.75 15.02 7.18 15.87 7.63 C23.51 11.68 31.03 15.94 38.55 20.23 C45.24 24.04 51.99 27.71 58.86 31.2 C64.86 34.29 64.86 34.29 67 37 C67.37 39.12 67.37 39.12 67.36 41.62 C67.36 42.56 67.37 43.51 67.37 44.49 C67.36 45.53 67.35 46.56 67.34 47.63 C67.34 49.28 67.34 49.28 67.34 50.95 C67.34 53.33 67.33 55.71 67.32 58.09 C67.3 61.86 67.3 65.62 67.31 69.39 C67.33 80.09 67.32 90.8 67.28 101.51 C67.26 108.05 67.27 114.6 67.3 121.15 C67.3 123.64 67.29 126.14 67.27 128.64 C67.25 132.13 67.26 135.62 67.27 139.11 C67.25 140.66 67.25 140.66 67.22 142.24 C67.18 147.3 67.18 147.3 69.3 151.73 C71.06 153.29 71.06 153.29 74 155 C74.8 155.52 75.6 156.04 76.42 156.58 C77.21 157.04 78 157.49 78.82 157.95 C79.73 158.48 80.64 159.01 81.59 159.55 C82.57 160.11 83.55 160.67 84.56 161.25 C86.72 162.5 88.88 163.74 91.04 164.99 C92.74 165.97 92.74 165.97 94.48 166.97 C100.48 170.43 106.46 173.93 112.44 177.44 C113.05 177.8 113.66 178.15 114.29 178.52 C122.74 183.48 131.16 188.46 139.56 193.5 C141.05 194.39 141.05 194.39 142.58 195.3 C147.62 198.33 152.64 201.39 157.63 204.5 C160.19 206.1 162.75 207.69 165.32 209.27 C166.55 210.04 167.78 210.82 169.01 211.59 C170.72 212.68 172.45 213.74 174.17 214.81 C175.64 215.73 175.64 215.73 177.15 216.68 C180.4 218.19 182.45 218.38 186 218 C188.63 216.78 190.97 215.55 193.44 214.06 C194.14 213.65 194.84 213.24 195.56 212.82 C197.72 211.56 199.86 210.28 202 209 C203.2 208.29 204.4 207.57 205.61 206.86 C208.03 205.41 210.46 203.95 212.88 202.48 C225.72 194.73 238.69 187.18 251.64 179.59 C255.32 177.43 259.01 175.27 262.7 173.11 C265.57 171.42 268.45 169.74 271.32 168.06 C274.34 166.29 277.36 164.52 280.38 162.75 C281.69 161.98 281.69 161.98 283.04 161.2 C291.65 156.74 291.65 156.74 298 150 C298.09 148.49 298.11 146.98 298.1 145.47 C298.09 144.52 298.09 143.57 298.09 142.58 C298.08 141.01 298.08 141.01 298.06 139.4 C298.05 137.12 298.04 134.83 298.03 132.55 C298.03 131.33 298.02 130.11 298.02 128.86 C297.99 121.77 298 114.67 298.01 107.58 C298.01 100.07 298 92.56 297.95 85.05 C297.9 78.45 297.9 71.84 297.93 65.24 C297.94 62.72 297.92 60.2 297.89 57.69 C297.86 54.16 297.87 50.64 297.9 47.11 C297.87 45.55 297.87 45.55 297.83 43.96 C297.97 37.04 297.97 37.04 300.93 34.06 C303.23 32.5 305.51 31.22 308 30 C309.42 29.22 310.84 28.43 312.26 27.65 C313.73 26.89 315.21 26.13 316.69 25.38 C318.35 24.51 320.02 23.65 321.68 22.78 C322.98 22.11 322.98 22.11 324.3 21.42 C329 18.95 333.66 16.42 338.31 13.88 C339.24 13.37 340.16 12.87 341.12 12.35 C345.24 10.09 349.34 7.82 353.4 5.46 C354.05 5.08 354.7 4.71 355.37 4.32 C357.05 3.33 358.74 2.33 360.42 1.33 C363 0 363 0 366 0 C366.12 24.43 366.2 48.85 366.26 73.28 C366.28 84.62 366.32 95.96 366.38 107.3 C366.43 117.18 366.46 127.07 366.47 136.95 C366.48 142.19 366.49 147.42 366.53 152.65 C366.56 157.58 366.57 162.51 366.57 167.43 C366.57 169.24 366.58 171.05 366.6 172.86 C366.62 175.33 366.61 177.79 366.6 180.26 C366.62 180.98 366.63 181.7 366.65 182.43 C366.59 186.29 366.11 187.86 363.62 190.88 C361.07 192.94 358.59 194.63 355.74 196.24 C354.2 197.12 354.2 197.12 352.64 198.01 C351.54 198.63 350.44 199.24 349.31 199.88 C348.15 200.53 346.99 201.19 345.83 201.85 C343.43 203.22 341.02 204.59 338.61 205.96 C332.97 209.15 327.36 212.39 321.75 215.62 C320.67 216.25 319.59 216.87 318.48 217.51 C310.68 222.01 302.92 226.57 295.17 231.17 C288.61 235.05 282.03 238.91 275.44 242.75 C265.33 248.64 255.24 254.54 245.15 260.46 C243.92 261.18 242.69 261.9 241.46 262.62 C240.85 262.98 240.24 263.34 239.61 263.71 C235.84 265.92 232.08 268.13 228.31 270.33 C226.42 271.43 224.54 272.54 222.65 273.64 C220.2 275.07 217.75 276.51 215.3 277.94 C209.79 281.15 204.32 284.4 198.91 287.77 C197.99 288.34 197.07 288.91 196.12 289.5 C194.43 290.55 192.75 291.61 191.07 292.69 C190.34 293.14 189.6 293.6 188.84 294.07 C187.9 294.67 187.9 294.67 186.94 295.28 C184.24 296.28 182.74 295.84 180 295 C177.47 293.76 177.47 293.76 174.77 292.18 C173.76 291.59 172.74 291 171.69 290.39 C170.6 289.75 169.5 289.1 168.38 288.44 C167.22 287.76 166.06 287.08 164.9 286.41 C155.61 280.98 146.36 275.48 137.11 269.98 C129.44 265.43 121.74 260.94 114 256.5 C105.12 251.4 96.3 246.23 87.5 241 C78.6 235.7 69.67 230.47 60.69 225.31 C50.89 219.68 41.14 213.99 31.43 208.21 C27.59 205.94 23.74 203.68 19.88 201.44 C18.88 200.86 17.87 200.27 16.84 199.66 C14.91 198.54 12.98 197.42 11.05 196.31 C10.19 195.81 9.32 195.3 8.43 194.78 C7.67 194.34 6.91 193.9 6.12 193.44 C3.63 191.75 1.89 190.37 0 188 C-0.38 185.32 -0.52 183.06 -0.48 180.38 C-0.48 179.61 -0.49 178.84 -0.49 178.05 C-0.5 175.46 -0.48 172.87 -0.45 170.29 C-0.45 168.44 -0.45 166.58 -0.46 164.73 C-0.46 159.7 -0.43 154.66 -0.41 149.63 C-0.38 144.37 -0.38 139.11 -0.37 133.86 C-0.36 123.9 -0.33 113.94 -0.29 103.98 C-0.24 92.64 -0.22 81.31 -0.2 69.97 C-0.16 46.65 -0.09 23.32 0 0 Z " fill="#18212B" transform="translate(331,542)"/>
<path d="M0 0 C0.09 19.19 0.16 38.39 0.21 57.58 C0.23 66.49 0.26 75.4 0.3 84.31 C0.34 92.08 0.37 99.85 0.38 107.62 C0.38 111.73 0.39 115.84 0.42 119.96 C0.45 123.83 0.46 127.7 0.45 131.57 C0.45 132.99 0.46 134.41 0.48 135.83 C0.61 149.09 0.61 149.09 -4 154 C-9.87 159.77 -17.83 163.59 -24.91 167.71 C-28.5 169.81 -32.07 171.92 -35.65 174.04 C-36.73 174.67 -36.73 174.67 -37.82 175.32 C-45.11 179.64 -52.3 184.12 -59.47 188.64 C-67.08 193.44 -74.75 198.12 -82.45 202.77 C-90.45 207.62 -98.33 212.64 -106.17 217.73 C-107.04 218.29 -107.91 218.85 -108.8 219.43 C-109.57 219.93 -110.33 220.42 -111.12 220.94 C-113 222 -113 222 -115 222 C-111.26 226.3 -106.57 228.9 -101.75 231.81 C-99.84 232.98 -97.94 234.14 -96.04 235.31 C-95.04 235.91 -94.05 236.52 -93.03 237.14 C-88.06 240.19 -83.12 243.28 -78.19 246.38 C-76.16 247.64 -74.13 248.91 -72.1 250.18 C-68.08 252.7 -64.07 255.21 -60.06 257.72 C-49.53 264.32 -38.97 270.87 -28.38 277.38 C-3.1 292.9 -3.1 292.9 0 296 C0.25 298.59 0.25 298.59 0.24 301.94 C0.24 303.83 0.24 303.83 0.25 305.77 C0.24 307.18 0.23 308.59 0.23 310 C0.23 311.47 0.23 312.95 0.23 314.43 C0.23 318.45 0.22 322.47 0.2 326.49 C0.19 330.69 0.19 334.89 0.19 339.09 C0.18 347.04 0.16 355 0.14 362.95 C0.12 372.01 0.11 381.06 0.1 390.11 C0.08 408.74 0.04 427.37 0 446 C-3.83 445.31 -6.54 444.33 -9.89 442.33 C-10.84 441.78 -11.78 441.22 -12.75 440.65 C-13.76 440.04 -14.77 439.44 -15.81 438.81 C-17.99 437.53 -20.16 436.24 -22.33 434.96 C-23.44 434.3 -24.55 433.64 -25.69 432.96 C-30.78 429.95 -35.89 426.97 -41 424 C-43 422.83 -45.01 421.66 -47.01 420.5 C-48 419.92 -48.99 419.34 -50.01 418.75 C-52.98 417.01 -55.96 415.27 -58.93 413.54 C-72.5 405.61 -86.1 397.74 -99.72 389.89 C-105.15 386.76 -110.57 383.63 -116 380.5 C-117.61 379.57 -117.61 379.57 -119.25 378.62 C-124.65 375.51 -130.04 372.4 -135.43 369.29 C-153.22 359.01 -171.05 348.81 -188.9 338.64 C-191.5 337.16 -194.09 335.68 -196.69 334.19 C-198.53 333.15 -200.37 332.1 -202.2 331.05 C-203.31 330.42 -204.42 329.79 -205.57 329.13 C-206.55 328.57 -207.52 328.02 -208.53 327.44 C-210.39 326.36 -212.21 325.19 -214 324 C-214.06 329.68 -214.06 335.35 -214.01 341.02 C-214 342.95 -214.01 344.88 -214.03 346.8 C-214.63 359.58 -214.63 359.58 -209.09 370.52 C-208.39 371.11 -207.68 371.7 -206.96 372.31 C-202.57 376.1 -201.29 381.57 -200.62 387.14 C-200.31 395.45 -201.68 403.48 -206.7 410.31 C-210.15 417.44 -205.31 428.11 -203.44 435.31 C-202.79 437.83 -202.14 440.35 -201.5 442.86 C-201.21 443.97 -200.92 445.08 -200.63 446.22 C-200 449 -200 449 -200 452 C-223.43 452 -246.86 452 -271 452 C-267.64 438.58 -267.64 438.58 -266.14 434.04 C-265.83 433.08 -265.52 432.11 -265.2 431.11 C-264.56 429.14 -263.91 427.17 -263.25 425.21 C-261.15 418.58 -260.36 413.88 -263.16 407.27 C-263.6 406.46 -264.04 405.65 -264.5 404.81 C-268.35 397.7 -268.95 391.06 -268 383 C-266.09 377.57 -263.8 372.59 -259.44 368.74 C-255.21 363.67 -256.2 356.66 -256.2 350.41 C-256.18 348.97 -256.17 347.54 -256.15 346.1 C-256.13 343.1 -256.12 340.11 -256.13 337.11 C-256.13 333.27 -256.08 329.44 -256 325.61 C-255.95 322.65 -255.95 319.69 -255.95 316.73 C-255.95 315.31 -255.93 313.9 -255.9 312.49 C-255.5 304.57 -255.5 304.57 -258.95 297.84 C-261.24 296.29 -263.47 295.13 -266 294 C-267.22 293.27 -268.42 292.53 -269.62 291.77 C-271.8 290.46 -273.99 289.14 -276.18 287.83 C-280.25 285.19 -280.25 285.19 -282 283 C-282.41 280.76 -282.41 280.76 -282.45 278.1 C-282.48 276.58 -282.48 276.58 -282.52 275.04 C-282.53 273.93 -282.54 272.82 -282.55 271.68 C-282.57 270.51 -282.59 269.34 -282.61 268.14 C-282.68 264.27 -282.72 260.39 -282.75 256.52 C-282.76 255.18 -282.78 253.85 -282.79 252.51 C-282.85 246.95 -282.89 241.4 -282.92 235.84 C-282.96 227.88 -283.04 219.93 -283.19 211.98 C-283.28 206.38 -283.33 200.78 -283.35 195.18 C-283.35 191.84 -283.39 188.5 -283.47 185.16 C-283.9 164.87 -283.9 164.87 -280.77 160.14 C-277.37 156.87 -273.46 155.45 -269 154 C-267.73 153.32 -266.47 152.61 -265.24 151.85 C-264.25 151.31 -263.25 150.77 -262.23 150.21 C-261.09 149.59 -259.94 148.96 -258.77 148.32 C-258.18 148 -257.6 147.69 -257 147.36 C-247.2 142.03 -237.48 136.6 -227.88 130.94 C-219.38 125.93 -210.82 121.08 -202.19 116.31 C-192.24 110.81 -182.36 105.21 -172.54 99.48 C-169.7 97.83 -166.85 96.19 -164 94.55 C-152.83 88.13 -141.7 81.66 -130.62 75.06 C-120.89 69.27 -111.09 63.6 -101.24 58 C-92.6 53.09 -84.03 48.09 -75.5 43 C-65.17 36.84 -54.76 30.83 -44.31 24.88 C-35.47 19.85 -26.67 14.75 -17.9 9.6 C-1.51 0 -1.51 0 0 0 Z M-26.12 34.12 C-27.68 35.05 -29.24 35.98 -30.79 36.9 C-31.63 37.4 -32.47 37.9 -33.34 38.42 C-38.03 41.2 -42.73 43.94 -47.44 46.69 C-48.45 47.28 -49.46 47.87 -50.5 48.48 C-63.41 55.99 -76.35 63.44 -89.29 70.9 C-100.88 77.57 -112.46 84.25 -124 91 C-135.55 97.75 -147.13 104.44 -158.73 111.11 C-161.96 112.98 -165.2 114.85 -168.44 116.72 C-179.63 123.19 -190.84 129.64 -202.06 136.06 C-202.94 136.56 -202.94 136.56 -203.83 137.07 C-212.15 141.83 -220.5 146.52 -228.88 151.19 C-237.12 155.78 -245.31 160.46 -253.44 165.25 C-254.37 165.8 -255.31 166.35 -256.27 166.91 C-257.13 167.42 -257.99 167.93 -258.87 168.45 C-259.62 168.9 -260.38 169.34 -261.15 169.8 C-263.14 171 -263.14 171 -265 173 C-265.31 174.86 -265.31 174.86 -265.27 177.01 C-265.28 177.85 -265.28 178.69 -265.29 179.55 C-265.29 180.47 -265.29 181.39 -265.29 182.34 C-265.3 183.31 -265.3 184.28 -265.31 185.28 C-265.33 188.5 -265.33 191.71 -265.34 194.93 C-265.34 197.16 -265.35 199.39 -265.36 201.62 C-265.37 206.3 -265.37 210.98 -265.37 215.66 C-265.37 221.66 -265.4 227.66 -265.43 233.66 C-265.45 238.27 -265.46 242.87 -265.46 247.48 C-265.46 249.69 -265.47 251.91 -265.48 254.12 C-265.5 257.21 -265.5 260.3 -265.49 263.4 C-265.5 264.32 -265.51 265.23 -265.52 266.18 C-265.52 271.21 -265.52 271.21 -263.1 275.51 C-260.96 277.03 -258.85 278.42 -256.56 279.69 C-255.73 280.16 -254.9 280.63 -254.04 281.12 C-253.18 281.59 -252.32 282.07 -251.44 282.56 C-249.73 283.52 -248.02 284.48 -246.31 285.44 C-245.55 285.86 -244.8 286.28 -244.02 286.71 C-240.51 288.95 -240.51 288.95 -239 291 C-238.68 293.66 -238.54 296.09 -238.53 298.76 C-238.52 299.55 -238.51 300.33 -238.49 301.15 C-238.45 303.76 -238.44 306.37 -238.43 308.98 C-238.41 310.8 -238.4 312.62 -238.38 314.44 C-238.35 318.25 -238.34 322.06 -238.33 325.88 C-238.32 330.75 -238.26 335.63 -238.19 340.51 C-238.14 344.26 -238.13 348.02 -238.12 351.77 C-238.12 353.57 -238.1 355.37 -238.06 357.17 C-237.82 371.25 -237.82 371.25 -240.77 375.62 C-242.77 377.37 -244.71 378.67 -247 380 C-250.17 383.77 -250.47 387.01 -250.29 391.8 C-249.67 396.54 -247.55 399.42 -244.31 402.81 C-241.91 406.13 -241.28 408.02 -241.49 412.09 C-242.33 416.86 -243.74 421.46 -245.22 426.06 C-246.34 429.58 -247 432.27 -247 436 C-239.08 436 -231.16 436 -223 436 C-223.86 429.13 -225.25 423.18 -227.16 416.59 C-227.96 413.16 -228.42 410.49 -228 407 C-226.54 405.02 -226.54 405.02 -224.62 403.38 C-221.27 400.43 -219.34 398.16 -218.63 393.67 C-218.49 388.31 -218.98 384.92 -222.32 380.67 C-224.11 378.79 -224.11 378.79 -227.06 376.89 C-229.78 374.62 -229.98 374.09 -230.76 370.36 C-230.79 368.94 -230.8 367.51 -230.77 366.09 C-230.79 364.92 -230.79 364.92 -230.81 363.72 C-230.83 361.15 -230.82 358.58 -230.8 356.01 C-230.82 354.23 -230.83 352.44 -230.85 350.65 C-230.88 345.96 -230.88 341.27 -230.88 336.57 C-230.87 331.78 -230.91 326.99 -230.94 322.19 C-230.99 312.8 -231.01 303.4 -231 294 C-230.28 294.41 -229.56 294.83 -228.82 295.26 C-225.49 297.18 -222.15 299.1 -218.82 301.03 C-217.92 301.55 -217.92 301.55 -217.01 302.07 C-210.54 305.8 -204.08 309.53 -197.62 313.25 C-186.4 319.71 -175.21 326.2 -164.04 332.73 C-156.71 337.01 -149.36 341.26 -142 345.5 C-132.66 350.88 -123.34 356.29 -114.04 361.73 C-106.71 366.01 -99.36 370.26 -92 374.5 C-82.67 379.87 -73.36 385.28 -64.07 390.71 C-58.74 393.82 -53.41 396.92 -48.07 400 C-47.2 400.5 -47.2 400.5 -46.31 401.01 C-43.51 402.63 -40.71 404.24 -37.9 405.85 C-32.2 409.13 -26.55 412.46 -20.96 415.93 C-19.08 417.16 -19.08 417.16 -17 417 C-16.88 402.47 -16.8 387.93 -16.74 373.4 C-16.72 366.65 -16.68 359.9 -16.62 353.15 C-16.57 346.64 -16.54 340.13 -16.53 333.62 C-16.52 331.14 -16.5 328.65 -16.47 326.16 C-16.44 322.69 -16.43 319.21 -16.43 315.74 C-16.41 314.19 -16.41 314.19 -16.38 312.61 C-16.31 306.96 -16.31 306.96 -19.37 302.44 C-20.67 301.73 -20.67 301.73 -22 301 C-22.86 300.43 -23.73 299.87 -24.62 299.28 C-25.55 298.72 -26.48 298.15 -27.44 297.57 C-28.49 296.92 -29.54 296.28 -30.62 295.62 C-31.73 294.94 -32.85 294.26 -34 293.56 C-35.17 292.85 -36.34 292.13 -37.51 291.41 C-39.88 289.96 -42.26 288.51 -44.63 287.06 C-49.37 284.16 -54.09 281.24 -58.81 278.31 C-59.66 277.79 -60.51 277.26 -61.38 276.72 C-65.64 274.08 -69.9 271.44 -74.16 268.8 C-88.9 259.65 -103.71 250.62 -118.55 241.64 C-121.1 240.1 -123.64 238.55 -126.19 237.01 C-128.02 235.9 -129.85 234.79 -131.69 233.68 C-132.81 233 -133.94 232.32 -135.1 231.62 C-136.09 231.02 -137.09 230.41 -138.11 229.79 C-141.12 227.92 -144.06 225.98 -147 224 C-145.66 219.98 -143.14 219.01 -139.64 217.01 C-138.99 216.63 -138.34 216.24 -137.67 215.85 C-136.26 215.03 -134.86 214.21 -133.45 213.4 C-129.75 211.26 -126.06 209.09 -122.38 206.92 C-121.64 206.49 -120.91 206.07 -120.16 205.62 C-114.47 202.29 -108.84 198.87 -103.25 195.38 C-95.2 190.35 -87.11 185.41 -79 180.5 C-69.87 174.97 -60.76 169.41 -51.7 163.76 C-47.06 160.88 -42.41 158.04 -37.73 155.23 C-36.68 154.59 -35.64 153.96 -34.55 153.31 C-32.53 152.09 -30.49 150.88 -28.46 149.67 C-27.54 149.12 -26.63 148.56 -25.68 148 C-24.47 147.27 -24.47 147.27 -23.23 146.53 C-22.5 146.03 -21.76 145.52 -21 145 C-20.3 144.53 -19.61 144.06 -18.89 143.57 C-15.88 139.47 -16.48 135.31 -16.55 130.36 C-16.55 129.27 -16.54 128.19 -16.54 127.07 C-16.55 123.49 -16.58 119.91 -16.61 116.33 C-16.62 113.85 -16.62 111.36 -16.63 108.88 C-16.64 103.01 -16.67 97.14 -16.71 91.27 C-16.76 83.94 -16.78 76.6 -16.8 69.26 C-16.85 56.17 -16.92 43.09 -17 30 C-20.45 30 -23.23 32.38 -26.12 34.12 Z " fill="#F8F9F8" transform="translate(502,159)"/>
<path d="M0 0 C4.06 1.32 7.71 2.77 11.46 4.8 C13.02 5.64 13.02 5.64 14.6 6.49 C15.7 7.09 16.8 7.69 17.94 8.31 C19.09 8.94 20.25 9.57 21.44 10.21 C29.7 14.7 37.91 19.3 46.08 23.95 C55.22 29.15 64.42 34.21 73.63 39.27 C75.93 40.53 78.22 41.8 80.51 43.07 C82.95 44.42 85.39 45.76 87.84 47.08 C89.1 47.78 90.36 48.47 91.62 49.17 C92.75 49.78 93.88 50.4 95.04 51.03 C98.34 53.23 99.94 54.59 102 58 C102.56 61.58 102.46 65.12 102.39 68.74 C102.38 69.82 102.38 70.9 102.37 72.02 C102.36 74.36 102.33 76.71 102.3 79.06 C102.26 82.77 102.24 86.49 102.24 90.2 C102.22 100.77 102.16 111.33 102.04 121.9 C101.97 128.36 101.95 134.82 101.95 141.29 C101.95 143.75 101.92 146.21 101.88 148.67 C101.82 152.12 101.82 155.56 101.84 159 C101.8 160.02 101.77 161.03 101.74 162.08 C101.81 166.48 101.97 168.98 105.19 172.16 C107.72 173.96 110.27 175.51 113 177 C114.11 177.69 115.22 178.39 116.37 179.1 C117.36 179.68 118.35 180.25 119.37 180.84 C120.51 181.5 121.65 182.16 122.82 182.85 C123.41 183.19 124 183.53 124.6 183.88 C127.15 185.35 129.68 186.83 132.22 188.3 C133.53 189.07 134.85 189.83 136.16 190.6 C142.78 194.45 149.36 198.34 155.94 202.25 C158.15 203.56 160.36 204.88 162.57 206.19 C163.64 206.82 164.71 207.45 165.81 208.11 C170.95 211.16 176.1 214.2 181.25 217.25 C182.14 217.77 183.02 218.3 183.94 218.84 C185.56 219.8 187.19 220.76 188.82 221.71 C190.21 222.53 191.57 223.38 192.91 224.28 C195.97 226.26 197.67 227.02 201.34 226.79 C205.07 225.98 207.58 224.87 210.84 222.94 C211.92 222.31 212.99 221.68 214.09 221.04 C215.22 220.37 216.34 219.69 217.5 219 C218.68 218.3 219.87 217.61 221.05 216.91 C224.38 214.96 227.69 212.98 231 211 C231.73 210.57 232.46 210.13 233.21 209.68 C236.05 207.99 238.89 206.27 241.73 204.56 C247.21 201.26 252.74 198.04 258.27 194.81 C263.27 191.89 268.26 188.95 273.26 186.02 C274.92 185.05 276.58 184.08 278.24 183.1 C281.06 181.45 283.87 179.79 286.69 178.12 C287.51 177.64 288.34 177.16 289.19 176.67 C289.93 176.22 290.68 175.78 291.45 175.32 C292.09 174.94 292.73 174.56 293.4 174.17 C295.3 172.92 295.3 172.92 297 170 C297.3 167.81 297.3 167.81 297.24 165.35 C297.25 164.39 297.25 163.43 297.26 162.45 C297.25 161.4 297.25 160.35 297.24 159.27 C297.24 158.17 297.24 157.07 297.25 155.93 C297.25 153.53 297.25 151.12 297.24 148.72 C297.24 144.92 297.25 141.13 297.26 137.33 C297.3 126.52 297.32 115.72 297.31 104.92 C297.3 98.31 297.32 91.71 297.35 85.11 C297.36 82.59 297.36 80.07 297.35 77.55 C297.33 74.03 297.35 70.51 297.37 66.98 C297.36 65.94 297.35 64.9 297.34 63.82 C297.43 56.75 297.43 56.75 300.35 52.93 C303.24 50.82 306.11 49.08 309.28 47.43 C309.88 47.12 310.47 46.8 311.09 46.48 C312.37 45.81 313.65 45.14 314.94 44.47 C316.97 43.42 319 42.36 321.03 41.29 C323.75 39.85 326.48 38.42 329.21 36.99 C334.23 34.36 339.21 31.66 344.19 28.94 C345.47 28.24 345.47 28.24 346.79 27.52 C353.6 23.79 360.38 20.01 367.16 16.24 C384.49 6.59 384.49 6.59 391 3.06 C392.11 2.46 393.23 1.85 394.38 1.22 C397 0 397 0 400 0 C400.11 28.83 400.2 57.67 400.26 86.5 C400.26 89.9 400.27 93.31 400.27 96.71 C400.28 97.39 400.28 98.07 400.28 98.76 C400.3 109.74 400.34 120.71 400.39 131.68 C400.43 142.94 400.46 154.2 400.47 165.46 C400.48 171.78 400.49 178.11 400.53 184.43 C400.56 190.38 400.57 196.33 400.57 202.28 C400.57 204.47 400.58 206.65 400.6 208.84 C400.62 211.82 400.61 214.8 400.6 217.78 C400.62 218.65 400.63 219.52 400.65 220.41 C400.59 224.76 400.43 226.46 397.63 229.96 C394.95 232.04 392.3 233.78 389.34 235.43 C388.23 236.05 387.12 236.67 385.98 237.31 C385.39 237.64 384.81 237.96 384.2 238.3 C381.04 240.05 377.9 241.83 374.75 243.61 C373.78 244.16 373.78 244.16 372.79 244.71 C366.26 248.4 359.81 252.22 353.38 256.06 C344.52 261.34 335.63 266.55 326.69 271.69 C317.93 276.72 309.21 281.8 300.52 286.95 C293.01 291.41 285.48 295.83 277.94 300.25 C276.7 300.97 275.47 301.69 274.24 302.42 C268.64 305.7 263.03 308.98 257.43 312.26 C242.03 321.26 226.68 330.34 211.4 339.55 C210.61 340.03 209.82 340.51 209 341 C207.73 341.82 207.73 341.82 206.43 342.65 C202.93 344.59 199.84 344.73 196 344 C192.84 342.67 190.06 340.87 187.19 339 C185.41 337.89 183.63 336.78 181.85 335.67 C180.91 335.07 179.96 334.48 178.99 333.86 C173.73 330.59 168.39 327.46 163.06 324.31 C161.34 323.29 159.62 322.27 157.9 321.26 C148.78 315.86 139.63 310.5 130.49 305.15 C123.31 300.95 116.15 296.73 109 292.5 C95.69 284.62 82.35 276.81 69 269 C67.94 268.38 66.88 267.76 65.79 267.12 C54.4 260.46 42.99 253.84 31.56 247.25 C28.36 245.4 25.16 243.55 21.96 241.71 C19.19 240.11 16.42 238.52 13.65 236.94 C12.1 236.04 10.55 235.15 9 234.25 C7.96 233.66 7.96 233.66 6.9 233.06 C3.78 231.24 2.04 230.05 0 227 C-0.19 223.98 -0.26 221.05 -0.24 218.02 C-0.24 217.09 -0.24 216.16 -0.25 215.2 C-0.25 212.08 -0.24 208.95 -0.23 205.82 C-0.23 203.58 -0.23 201.35 -0.23 199.11 C-0.23 193.03 -0.22 186.94 -0.2 180.86 C-0.19 174.5 -0.19 168.15 -0.19 161.8 C-0.18 151.13 -0.17 140.46 -0.15 129.79 C-0.13 118.8 -0.12 107.81 -0.11 96.82 C-0.11 96.14 -0.11 95.47 -0.11 94.77 C-0.11 91.37 -0.1 87.97 -0.1 84.58 C-0.08 56.38 -0.04 28.19 0 0 Z M17 29 C16.84 53.41 16.71 77.82 16.64 102.23 C16.6 113.56 16.55 124.89 16.47 136.23 C16.4 146.1 16.36 155.98 16.34 165.86 C16.33 171.09 16.31 176.32 16.26 181.55 C16.21 186.47 16.2 191.39 16.21 196.32 C16.21 198.12 16.19 199.93 16.17 201.74 C15.68 210.93 15.68 210.93 18.51 219.37 C20.28 220.93 21.88 221.97 24 223 C25.49 223.96 25.49 223.96 27.02 224.94 C28.01 225.5 29.01 226.06 30.04 226.63 C31.16 227.26 32.29 227.9 33.45 228.55 C34.04 228.88 34.63 229.21 35.23 229.55 C38.39 231.3 41.52 233.08 44.66 234.85 C45.29 235.21 45.92 235.56 46.57 235.93 C52.07 239.03 57.51 242.21 62.94 245.44 C64.72 246.49 66.49 247.55 68.27 248.61 C69.19 249.15 70.1 249.69 71.05 250.25 C76.71 253.6 82.39 256.93 88.06 260.25 C89.29 260.97 90.53 261.69 91.76 262.42 C93.63 263.51 95.49 264.6 97.36 265.7 C101.73 268.25 106.09 270.81 110.45 273.37 C122.59 280.49 134.73 287.6 146.88 294.68 C152.41 297.9 157.93 301.13 163.45 304.37 C164.08 304.74 164.72 305.12 165.38 305.5 C169.06 307.66 172.74 309.82 176.42 311.99 C178.12 312.98 179.83 313.98 181.53 314.97 C183.97 316.39 186.39 317.85 188.8 319.32 C190.05 320.07 191.3 320.82 192.55 321.57 C193.67 322.25 194.79 322.93 195.94 323.63 C199.35 325.16 200.54 325.25 204 324 C205.97 323.08 205.97 323.08 207.84 321.88 C208.58 321.42 209.32 320.97 210.07 320.51 C210.87 320.01 211.68 319.51 212.5 319 C214.3 317.9 216.11 316.8 217.91 315.7 C218.89 315.1 219.86 314.51 220.87 313.89 C226.53 310.47 232.23 307.15 237.94 303.81 C239.18 303.09 240.41 302.36 241.65 301.64 C244.17 300.17 246.69 298.69 249.21 297.22 C252.96 295.02 256.71 292.82 260.46 290.62 C272.6 283.5 284.75 276.39 296.91 269.31 C302.28 266.17 307.66 263.03 313.02 259.88 C313.62 259.53 314.22 259.17 314.84 258.81 C315.45 258.45 316.05 258.1 316.68 257.73 C317.91 257.01 319.14 256.29 320.38 255.56 C321.29 255.03 321.29 255.03 322.22 254.48 C330.98 249.34 339.76 244.25 348.56 239.19 C356.56 234.58 364.56 229.96 372.5 225.25 C373.34 224.76 374.17 224.27 375.04 223.77 C375.8 223.31 376.56 222.86 377.34 222.39 C378.01 222 378.67 221.61 379.35 221.2 C381.3 219.93 381.3 219.93 383 217 C383.19 214.46 383.26 212.04 383.24 209.5 C383.24 208.73 383.24 207.96 383.25 207.17 C383.25 204.58 383.24 201.99 383.23 199.4 C383.23 197.55 383.23 195.7 383.23 193.84 C383.23 188.81 383.22 183.77 383.2 178.73 C383.19 173.47 383.19 168.21 383.19 162.95 C383.18 152.98 383.16 143.02 383.14 133.05 C383.12 121.71 383.11 110.36 383.1 99.02 C383.08 75.68 383.04 52.34 383 29 C379.8 29.6 377.24 30.2 374.42 31.83 C373.75 32.21 373.07 32.59 372.38 32.98 C371.66 33.4 370.93 33.82 370.19 34.25 C368.58 35.16 366.96 36.08 365.35 36.99 C364.49 37.48 363.63 37.96 362.74 38.47 C357.88 41.19 352.97 43.8 348.06 46.44 C340.33 50.6 332.66 54.85 325.06 59.25 C323.86 59.95 323.86 59.95 322.62 60.66 C319.11 62.56 319.11 62.56 316 65 C315.9 66.47 315.88 67.94 315.88 69.41 C315.87 70.37 315.87 71.32 315.87 72.3 C315.87 73.89 315.87 73.89 315.87 75.5 C315.87 76.6 315.87 77.71 315.87 78.84 C315.86 81.25 315.86 83.66 315.86 86.07 C315.86 91.18 315.84 96.29 315.82 101.4 C315.78 110.92 315.75 120.45 315.75 129.97 C315.75 136.59 315.73 143.2 315.69 149.82 C315.68 152.34 315.68 154.86 315.68 157.39 C315.69 160.92 315.67 164.45 315.64 167.98 C315.65 169.03 315.66 170.08 315.67 171.15 C315.57 178.26 315.57 178.26 312.59 182.1 C310.33 183.75 308.14 185.33 305.72 186.73 C304.89 187.22 304.07 187.7 303.21 188.2 C302.32 188.71 301.42 189.22 300.5 189.75 C299.54 190.31 298.59 190.86 297.6 191.43 C295.52 192.65 293.43 193.86 291.33 195.07 C286.09 198.1 280.87 201.17 275.65 204.24 C273.8 205.32 271.95 206.4 270.1 207.49 C257.96 214.6 245.85 221.77 233.75 228.96 C228.76 231.93 223.76 234.89 218.76 237.86 C216.97 238.92 215.19 239.98 213.4 241.04 C212.33 241.67 211.26 242.31 210.15 242.96 C208.73 243.81 208.73 243.81 207.28 244.67 C203.52 246.86 201.41 247.35 197 247 C194.21 245.71 194.21 245.71 191.31 243.88 C189.67 242.86 189.67 242.86 187.99 241.82 C187.41 241.45 186.84 241.09 186.24 240.71 C183.77 239.14 181.28 237.6 178.79 236.06 C177.49 235.25 176.19 234.44 174.89 233.63 C168.1 229.42 161.22 225.39 154.31 221.38 C151.88 219.96 149.46 218.54 147.03 217.12 C146.14 216.61 146.14 216.61 145.24 216.08 C138.22 211.97 131.25 207.76 124.29 203.55 C118.83 200.26 113.34 197.03 107.8 193.87 C107.21 193.53 106.61 193.19 105.99 192.84 C103.11 191.19 100.22 189.55 97.32 187.92 C96.29 187.34 95.26 186.75 94.2 186.14 C92.84 185.38 92.84 185.38 91.44 184.59 C86.94 181.65 86.94 181.65 85 179 C84.4 175.42 84.49 171.86 84.53 168.24 C84.53 167.14 84.53 166.04 84.53 164.91 C84.52 162.53 84.53 160.15 84.54 157.77 C84.57 154.01 84.56 150.24 84.55 146.48 C84.53 137.13 84.55 127.77 84.57 118.42 C84.6 110.52 84.6 102.62 84.57 94.72 C84.57 91.01 84.59 87.29 84.62 83.58 C84.61 81.31 84.6 79.04 84.6 76.76 C84.61 75.73 84.63 74.69 84.64 73.62 C84.69 67.96 84.69 67.96 81.61 63.42 C80.75 62.95 79.89 62.48 79 62 C78.21 61.52 77.41 61.05 76.59 60.56 C75.76 60.12 74.93 59.68 74.07 59.22 C73.12 58.72 72.17 58.21 71.19 57.69 C69.68 56.88 69.68 56.88 68.12 56.06 C59.63 51.52 51.19 46.89 42.81 42.12 C33.53 36.85 33.53 36.85 24.19 31.69 C23.21 31.16 22.24 30.62 21.23 30.07 C19.11 28.86 19.11 28.86 17 29 Z " fill="#F8F9F8" transform="translate(314,513)"/>
<path d="M0 0 C1.59 0.79 3.17 1.57 4.76 2.36 C6.08 3.02 6.08 3.02 7.44 3.69 C10.92 5.47 14.27 7.42 17.62 9.44 C19.11 10.32 20.59 11.2 22.07 12.07 C22.86 12.54 23.65 13.01 24.46 13.5 C29.15 16.27 33.86 19.01 38.56 21.75 C40.63 22.95 42.7 24.16 44.76 25.36 C45.8 25.97 46.83 26.57 47.9 27.19 C50.92 28.95 53.94 30.72 56.96 32.48 C67.29 38.52 77.63 44.53 88 50.5 C101.35 58.19 114.66 65.95 127.96 73.73 C143.61 82.87 159.29 91.95 175 101 C187.64 108.28 200.28 115.57 212.88 122.94 C221.51 127.99 230.18 132.98 238.88 137.94 C240.04 138.6 241.21 139.27 242.38 139.94 C242.96 140.27 243.54 140.6 244.13 140.94 C259.33 149.61 259.33 149.61 265.89 153.38 C267.59 154.36 269.3 155.33 271 156.3 C272.54 157.19 272.54 157.19 274.1 158.09 C275 158.6 275.9 159.12 276.83 159.65 C279 161 279 161 281 163 C281.26 165.12 281.26 165.12 281.27 167.81 C281.28 168.82 281.29 169.84 281.3 170.88 C281.31 172 281.31 173.12 281.31 174.27 C281.31 175.45 281.32 176.62 281.33 177.83 C281.35 181.05 281.36 184.28 281.37 187.5 C281.37 189.52 281.38 191.53 281.38 193.55 C281.41 200.57 281.42 207.6 281.43 214.63 C281.43 221.18 281.46 227.73 281.5 234.28 C281.54 239.91 281.55 245.53 281.55 251.15 C281.55 254.51 281.56 257.87 281.59 261.23 C281.62 264.98 281.61 268.72 281.6 272.47 C281.62 274.14 281.62 274.14 281.64 275.85 C281.57 283.37 281.57 283.37 278.62 286.63 C277.75 287.08 276.89 287.53 276 288 C275.18 288.5 274.36 289 273.52 289.52 C272.65 289.99 271.78 290.47 270.89 290.96 C269.9 291.51 268.91 292.05 267.89 292.62 C266.83 293.2 265.78 293.78 264.69 294.38 C256.06 299.15 247.5 304 239 309 C230.89 313.76 222.72 318.42 214.5 323 C205.34 328.1 196.27 333.31 187.23 338.61 C179.56 343.11 171.85 347.53 164.12 351.94 C151.8 358.97 139.5 366.04 127.22 373.14 C121.81 376.26 116.41 379.38 111 382.5 C108.83 383.75 106.67 385 104.5 386.25 C91.5 393.75 91.5 393.75 88.25 395.63 C86.08 396.87 83.92 398.12 81.75 399.37 C76.31 402.51 70.87 405.65 65.43 408.79 C54.82 414.9 44.21 421.02 33.62 427.19 C32.65 427.76 31.67 428.32 30.67 428.91 C25.8 431.75 20.95 434.62 16.12 437.54 C15.2 438.1 14.27 438.67 13.31 439.24 C11.56 440.31 9.81 441.37 8.06 442.45 C7.29 442.92 6.52 443.38 5.73 443.87 C4.71 444.49 4.71 444.49 3.68 445.12 C2 446 2 446 0 446 C-0.16 426.55 -0.29 407.09 -0.36 387.64 C-0.4 378.61 -0.45 369.57 -0.53 360.54 C-0.6 352.67 -0.64 344.79 -0.66 336.92 C-0.67 332.75 -0.69 328.58 -0.74 324.41 C-0.79 320.49 -0.8 316.56 -0.79 312.64 C-0.79 311.2 -0.81 309.76 -0.83 308.32 C-1.03 297.45 -1.03 297.45 1.53 293.83 C3.29 292.3 4.96 291.13 7 290 C7.76 289.48 8.52 288.96 9.3 288.42 C9.96 288.04 10.63 287.65 11.32 287.25 C12.09 286.79 12.86 286.34 13.66 285.87 C14.88 285.16 14.88 285.16 16.12 284.44 C17.92 283.38 19.71 282.32 21.5 281.26 C22.41 280.72 23.33 280.18 24.27 279.63 C28.59 277.05 32.86 274.4 37.12 271.75 C38.88 270.66 40.63 269.57 42.38 268.48 C43.74 267.64 43.74 267.64 45.12 266.78 C50.41 263.51 55.7 260.26 61 257 C78.73 246.1 96.43 235.15 114 224 C111.31 221.14 108.68 219.01 105.32 217 C104.4 216.45 103.48 215.9 102.54 215.33 C101.56 214.75 100.57 214.16 99.56 213.56 C97.47 212.3 95.37 211.04 93.27 209.78 C92.22 209.14 91.16 208.51 90.07 207.85 C85.59 205.15 81.14 202.39 76.69 199.62 C68.84 194.76 60.99 189.9 53.12 185.06 C52.03 184.39 50.94 183.72 49.82 183.03 C43.46 179.11 37.08 175.22 30.7 171.35 C15.68 162.24 15.68 162.24 8.75 157.88 C7.69 157.21 6.64 156.55 5.55 155.87 C2.99 153.99 1.62 152.7 0 150 C-0.37 147.17 -0.37 147.17 -0.36 143.82 C-0.36 142.56 -0.37 141.29 -0.37 139.98 C-0.36 138.58 -0.35 137.18 -0.34 135.78 C-0.34 134.3 -0.34 132.82 -0.34 131.34 C-0.34 127.33 -0.33 123.32 -0.3 119.31 C-0.29 115.11 -0.28 110.92 -0.28 106.72 C-0.27 98.78 -0.25 90.84 -0.22 82.9 C-0.18 73.86 -0.17 64.82 -0.15 55.79 C-0.12 37.19 -0.07 18.59 0 0 Z M17 30 C16.88 44.39 16.8 58.77 16.74 73.16 C16.71 79.84 16.68 86.52 16.62 93.2 C16.57 99.64 16.54 106.09 16.53 112.53 C16.52 114.99 16.5 117.45 16.47 119.91 C16.44 123.36 16.43 126.8 16.43 130.24 C16.41 131.26 16.4 132.28 16.38 133.33 C16.41 139.15 16.41 139.15 19.38 144.06 C21.94 145.95 24.47 147.74 27.19 149.39 C28.71 150.32 28.71 150.32 30.26 151.26 C31.89 152.25 31.89 152.25 33.56 153.25 C34.72 153.95 35.88 154.66 37.03 155.36 C40.07 157.21 43.12 159.05 46.17 160.89 C49.12 162.68 52.08 164.47 55.03 166.27 C58.53 168.39 62.03 170.52 65.53 172.64 C74.44 178.04 83.32 183.5 92.19 188.97 C100.91 194.34 109.66 199.66 118.42 204.96 C126.19 209.66 133.93 214.39 141.56 219.31 C144.54 221.36 144.54 221.36 148 222 C145.35 224.82 142.82 226.89 139.46 228.81 C138.58 229.32 137.7 229.84 136.79 230.36 C135.85 230.9 134.91 231.44 133.94 232 C126.73 236.19 119.59 240.45 112.56 244.94 C105.63 249.36 98.65 253.68 91.62 257.94 C83.44 262.9 75.28 267.91 67.14 272.96 C61.67 276.35 56.18 279.73 50.69 283.1 C32.94 292.85 32.94 292.85 17 305 C16.7 307.06 16.7 307.06 16.76 309.45 C16.76 310.39 16.75 311.33 16.75 312.29 C16.76 313.84 16.76 313.84 16.77 315.42 C16.77 316.5 16.77 317.58 16.77 318.7 C16.77 322.29 16.79 325.88 16.8 329.48 C16.81 331.96 16.81 334.45 16.81 336.93 C16.82 342.82 16.84 348.7 16.86 354.58 C16.88 361.93 16.89 369.29 16.9 376.64 C16.92 389.76 16.96 402.88 17 416 C20.62 414.58 23.97 413 27.36 411.09 C28.38 410.52 29.41 409.95 30.46 409.36 C31.55 408.74 32.63 408.13 33.75 407.5 C35.44 406.55 35.44 406.55 37.16 405.58 C43.96 401.75 50.71 397.87 57.42 393.89 C63.73 390.15 70.08 386.48 76.44 382.81 C77.54 382.17 78.65 381.54 79.79 380.88 C82.06 379.57 84.33 378.26 86.6 376.96 C92.07 373.81 97.54 370.65 103 367.5 C105.17 366.25 107.33 365 109.5 363.75 C110.57 363.13 111.64 362.51 112.75 361.88 C200.5 311.25 200.5 311.25 203.75 309.37 C205.91 308.13 208.07 306.88 210.23 305.64 C215.78 302.43 221.33 299.23 226.89 296.04 C232.32 292.91 237.75 289.78 243.17 286.64 C244.96 285.6 246.75 284.57 248.54 283.54 C250.68 282.3 252.81 281.06 254.94 279.81 C256.06 279.16 257.18 278.51 258.34 277.83 C261.13 275.91 262.37 274.95 264 272 C264.48 268.86 264.48 265.74 264.5 262.57 C264.52 261.14 264.52 261.14 264.55 259.68 C264.6 256.52 264.62 253.36 264.64 250.2 C264.65 249.12 264.66 248.04 264.67 246.93 C264.72 241.21 264.76 235.5 264.78 229.79 C264.8 223.89 264.88 217.99 264.98 212.09 C265.04 207.55 265.06 203.01 265.07 198.47 C265.08 196.3 265.1 194.13 265.15 191.95 C265.88 180.43 265.88 180.43 261.84 170.16 C259.27 168.32 256.94 167.14 254 166 C252.63 165.23 251.27 164.44 249.93 163.62 C248.58 162.89 247.23 162.16 245.88 161.44 C238.72 157.54 231.65 153.5 224.62 149.38 C215.82 144.22 206.99 139.12 198.12 134.06 C185.8 127.04 173.51 119.96 161.23 112.86 C157.96 110.98 154.7 109.1 151.44 107.22 C139.95 100.6 128.49 93.96 117.04 87.27 C109.67 82.96 102.28 78.7 94.88 74.44 C85.99 69.33 77.15 64.15 68.34 58.92 C60.01 53.99 51.63 49.16 43.23 44.34 C36.49 40.46 29.79 36.54 23.19 32.44 C20.31 30.56 20.31 30.56 17 30 Z " fill="#F8F9F8" transform="translate(525,159)"/>
<path d="M0 0 C0.33 0 0.66 0 1 0 C1 0.57 1 1.15 1 1.74 C1.04 15.69 1.1 29.65 1.18 43.6 C1.22 50.35 1.26 57.1 1.27 63.85 C1.29 70.36 1.32 76.87 1.37 83.38 C1.38 85.86 1.39 88.35 1.39 90.84 C1.39 94.31 1.42 97.79 1.45 101.26 C1.45 102.3 1.44 103.33 1.44 104.39 C1.43 109.94 1.43 109.94 4.03 114.67 C4.68 115.11 5.33 115.55 6 116 C4.35 116 2.7 116 1 116 C0.04 113.12 -0.12 111.34 -0.12 108.35 C-0.12 107.39 -0.12 106.44 -0.12 105.46 C-0.12 104.41 -0.12 103.36 -0.11 102.29 C-0.11 100.63 -0.11 100.63 -0.11 98.95 C-0.11 95.29 -0.11 91.64 -0.1 87.99 C-0.1 85.46 -0.09 82.93 -0.09 80.4 C-0.09 74.42 -0.08 68.44 -0.07 62.46 C-0.06 55.65 -0.06 48.84 -0.05 42.03 C-0.04 28.02 -0.02 14.01 0 0 Z " fill="#DDE0E1" transform="translate(415,571)"/>
<path d="M0 0 C3.81 1.53 5.97 2.53 9 5 C5.28 5.2 4.23 5.15 1 3 C1 28.41 1 53.82 1 80 C0.67 80 0.34 80 0 80 C0 53.6 0 27.2 0 0 Z " fill="#E2E4E4" transform="translate(271,453)"/>
<path d="M0 0 C0.66 0.33 1.32 0.66 2 1 C-5.98 9.2 -5.98 9.2 -13 10 C-13.33 10.99 -13.66 11.98 -14 13 C-16.32 13.7 -18.66 14.37 -21 15 C-21.33 15.66 -21.66 16.32 -22 17 C-24.56 17.62 -24.56 17.62 -27 18 C-25.67 14.02 -24.11 13.66 -20.47 11.68 C-19.35 11.06 -18.23 10.44 -17.07 9.81 C-15.88 9.16 -14.69 8.52 -13.5 7.88 C-11.18 6.6 -8.85 5.33 -6.53 4.05 C-5.5 3.49 -4.46 2.93 -3.39 2.35 C-1.12 1.21 -1.12 1.21 0 0 Z " fill="#E6E8E9" transform="translate(247,305)"/>
<path d="M0 0 C0.66 0.33 1.32 0.66 2 1 C-0.26 3.34 -2.28 5.19 -5 7 C-5.33 7.99 -5.66 8.98 -6 10 C-7.98 9.34 -9.96 8.68 -12 8 C-8.2 4.78 -4.43 2.25 0 0 Z " fill="#E7EAE9" transform="translate(661,752)"/>
<path d="M0 0 C0.66 0.33 1.32 0.66 2 1 C-0.13 4.19 -1.77 5.09 -5 7 C-5.33 7.66 -5.66 8.32 -6 9 C-8.31 9 -10.62 9 -13 9 C-10.59 6.36 -7.98 4.6 -4.94 2.75 C-4.06 2.21 -3.18 1.67 -2.28 1.11 C-1.53 0.74 -0.77 0.38 0 0 Z " fill="#E6E8E8" transform="translate(563,713)"/>
<path d="M0 0 C0.66 0.33 1.32 0.66 2 1 C0.74 4.78 -0.56 5.2 -4 7 C-6.93 7.98 -8.96 8.08 -12 8 C-8.2 4.78 -4.43 2.25 0 0 Z " fill="#E7E9E9" transform="translate(381,364)"/>
<path d="M0 0 C0 0.99 0 1.98 0 3 C-1.71 3.97 -3.41 4.94 -5.12 5.91 C-6.68 6.81 -8.19 7.8 -9.69 8.81 C-12 10 -12 10 -16 9 C-10.72 6.03 -5.44 3.06 0 0 Z " fill="#27323C" transform="translate(661,772)"/>
<path d="M0 0 C3.63 1.98 7.26 3.96 11 6 C7 7 7 7 4 7 C1.11 4.77 0.94 3.77 0 0 Z " fill="#E9E9E8" transform="translate(329,486)"/>
<path d="M0 0 C0.33 0.66 0.66 1.32 1 2 C0.22 2.25 -0.57 2.5 -1.38 2.75 C-4.13 3.73 -4.13 3.73 -5 6.06 C-6 8 -6 8 -8.5 8.81 C-11 9 -11 9 -13 8 C-8.71 5.36 -4.42 2.72 0 0 Z " fill="#E4E6E7" transform="translate(612,400)"/>
<path d="M0 0 C1.19 3.43 0.8 5.38 -0.44 8.75 C-0.87 9.95 -0.87 9.95 -1.31 11.17 C-1.54 11.78 -1.76 12.38 -2 13 C-2.66 12.67 -3.32 12.34 -4 12 C-3.53 7.22 -2.76 3.96 0 0 Z " fill="#2B353E" transform="translate(297,565)"/>
<path d="M0 0 C2 3 2.49 4.71 3.12 8.19 C3.29 9.09 3.46 9.99 3.63 10.92 C3.75 11.61 3.88 12.29 4 13 C3.01 12.67 2.02 12.34 1 12 C1 11.01 1 10.02 1 9 C0.34 8.67 -0.32 8.34 -1 8 C-1.33 8.66 -1.66 9.32 -2 10 C-2.33 9.01 -2.66 8.02 -3 7 C-2.01 6.67 -1.02 6.34 0 6 C0 4.02 0 2.04 0 0 Z " fill="#E6E6E5" transform="translate(293,577)"/>
<path d="M0 0 C0.33 0 0.66 0 1 0 C1.05 2.08 1.09 4.17 1.12 6.25 C1.15 7.41 1.17 8.57 1.2 9.77 C1.01 12.83 0.61 14.44 -1 17 C-1.99 16.67 -2.98 16.34 -4 16 C-4 14.35 -4 12.7 -4 11 C-2.68 11.33 -1.36 11.66 0 12 C0 8.04 0 4.08 0 0 Z " fill="#DEDEDD" transform="translate(300,543)"/>
<path d="M0 0 C0 0.99 0 1.98 0 3 C-0.64 3.29 -1.28 3.58 -1.94 3.88 C-4.15 4.83 -4.15 4.83 -5 7 C-7.65 7.59 -10.29 7.74 -13 8 C-10.2 5.81 -7.37 4.01 -4.25 2.31 C-3.45 1.88 -2.65 1.44 -1.83 0.99 C-1.22 0.66 -0.62 0.34 0 0 Z " fill="#27333C" transform="translate(803,445)"/>
<path d="M0 0 C0.33 1.32 0.66 2.64 1 4 C-2.86 6.15 -5.55 7.39 -10 7 C-6.8 4.35 -3.61 2.06 0 0 Z " fill="#E7E9EA" transform="translate(573,424)"/>
<path d="M0 0 C1.74 2.61 2.42 4.01 3.12 6.94 C3.29 7.61 3.46 8.28 3.63 8.96 C4 11 4 11 4 15 C2.68 14.67 1.36 14.34 0 14 C0 9.38 0 4.76 0 0 Z " fill="#303C44" transform="translate(275,579)"/>
<path d="M0 0 C1.1 3.31 1.22 5.7 0 9 C-2.56 10.31 -2.56 10.31 -5 11 C-3.77 6.95 -2.3 3.56 0 0 Z " fill="#E2E4E3" transform="translate(240,530)"/>
<path d="M0 0 C0.33 0.99 0.66 1.98 1 3 C1.66 3 2.32 3 3 3 C3.69 5.25 3.69 5.25 4 8 C2.56 10.31 2.56 10.31 1 12 C0.04 9.12 -0.11 7.3 -0.06 4.31 C-0.05 3.5 -0.04 2.7 -0.04 1.86 C-0.02 1.25 -0.01 0.63 0 0 Z " fill="#2A343E" transform="translate(252,544)"/>
<path d="M0 0 C0.66 0.33 1.32 0.66 2 1 C2 1.66 2 2.32 2 3 C0.35 3.33 -1.3 3.66 -3 4 C-3.33 4.99 -3.66 5.98 -4 7 C-5.32 6.34 -6.64 5.68 -8 5 C-6.71 4.14 -5.42 3.28 -4.12 2.44 C-3.05 1.72 -3.05 1.72 -1.95 1 C-1.3 0.67 -0.66 0.34 0 0 Z " fill="#E7E8E9" transform="translate(440,194)"/>
<path d="M0 0 C0.33 0.66 0.66 1.32 1 2 C0.34 2 -0.32 2 -1 2 C-1 2.66 -1 3.32 -1 4 C-2.32 4.33 -3.64 4.66 -5 5 C-5 5.66 -5 6.32 -5 7 C-6.65 7 -8.3 7 -10 7 C-7.22 3.73 -3.72 2.04 0 0 Z " fill="#E6E8E8" transform="translate(620,776)"/>
<path d="M0 0 C0.66 0.33 1.32 0.66 2 1 C-0.2 4.47 -2.01 5.93 -6 7 C-8.16 6.54 -8.16 6.54 -10 6 C-8.38 4.97 -6.75 3.95 -5.12 2.94 C-4.22 2.37 -3.32 1.8 -2.38 1.21 C-1.2 0.61 -1.2 0.61 0 0 Z " fill="#DEE0E1" transform="translate(551,816)"/>
<path d="M0 0 C-2.97 1.65 -5.94 3.3 -9 5 C-8 1 -8 1 -6.19 -0.31 C-4 -1 -4 -1 0 0 Z " fill="#E7E9E9" transform="translate(674,765)"/>
<path d="M0 0 C2.31 0 4.62 0 7 0 C7.66 1.65 8.32 3.3 9 5 C5.22 3.91 2.53 3.09 0 0 Z " fill="#E7E9E9" transform="translate(461,730)"/>
<path d="M0 0 C0 0.66 0 1.32 0 2 C-1.32 2.33 -2.64 2.66 -4 3 C-4 3.66 -4 4.32 -4 5 C-4.99 5 -5.98 5 -7 5 C-7 5.66 -7 6.32 -7 7 C-8.32 6.34 -9.64 5.68 -11 5 C-9.54 4.16 -8.09 3.33 -6.62 2.5 C-5.41 1.8 -5.41 1.8 -4.16 1.09 C-2 0 -2 0 0 0 Z " fill="#27323B" transform="translate(694,543)"/>
<path d="M0 0 C0.66 0.33 1.32 0.66 2 1 C-1.46 3.97 -1.46 3.97 -5 7 C-5.99 6.34 -6.98 5.68 -8 5 C-6.71 4.14 -5.42 3.28 -4.12 2.44 C-3.05 1.72 -3.05 1.72 -1.95 1 C-1.3 0.67 -0.66 0.34 0 0 Z " fill="#E4E6E6" transform="translate(263,296)"/>
<path d="M0 0 C0.66 0.33 1.32 0.66 2 1 C1.67 1.99 1.34 2.98 1 4 C-1.71 5.35 -4.01 5.07 -7 5 C-2.25 1.12 -2.25 1.12 0 0 Z " fill="#E5E8E8" transform="translate(692,734)"/>
<path d="M0 0 C3.47 1.98 3.47 1.98 7 4 C6.67 5.32 6.34 6.64 6 8 C5.34 7.67 4.68 7.34 4 7 C4 6.01 4 5.02 4 4 C2.68 3.67 1.36 3.34 0 3 C0 2.01 0 1.02 0 0 Z " fill="#E9E9EA" transform="translate(610,343)"/>
<path d="M0 0 C2.97 0.5 2.97 0.5 6 1 C1.38 5 1.38 5 -2 5 C-1.34 3.35 -0.68 1.7 0 0 Z " fill="#E8E9E9" transform="translate(238,326)"/>
<path d="M0 0 C0.66 0 1.32 0 2 0 C2.33 0.99 2.66 1.98 3 3 C0.03 5.48 0.03 5.48 -3 8 C-3.66 7.67 -4.32 7.34 -5 7 C-4.36 6.22 -3.72 5.43 -3.06 4.62 C-1.02 2.2 -1.02 2.2 0 0 Z " fill="#303B43" transform="translate(501,307)"/>
<path d="M0 0 C0.66 0.33 1.32 0.66 2 1 C0.35 2.98 -1.3 4.96 -3 7 C-4.65 6.67 -6.3 6.34 -8 6 C-5.38 3.88 -2.8 1.87 0 0 Z " fill="#E8E9EA" transform="translate(450,188)"/>
<path d="M0 0 C3.3 1.65 6.6 3.3 10 5 C6 6 6 6 3.31 4.75 C1 3 1 3 0 0 Z " fill="#EAE9EA" transform="translate(448,703)"/>
<path d="M0 0 C0 0.66 0 1.32 0 2 C-1.63 3.38 -3.29 4.72 -5 6 C-6.32 5.34 -7.64 4.68 -9 4 C-2.25 0 -2.25 0 0 0 Z " fill="#2B3540" transform="translate(667,558)"/>
<path d="M0 0 C0.66 1.32 1.32 2.64 2 4 C1.01 4.33 0.02 4.66 -1 5 C-1.33 5.99 -1.66 6.98 -2 8 C-2.99 7.34 -3.98 6.68 -5 6 C-3.35 4.02 -1.7 2.04 0 0 Z " fill="#E0E2E3" transform="translate(281,557)"/>
<path d="M0 0 C0.66 0.33 1.32 0.66 2 1 C1.01 2.98 0.02 4.96 -1 7 C-1.33 6.01 -1.66 5.02 -2 4 C-3.65 4.33 -5.3 4.66 -7 5 C-2.25 1.12 -2.25 1.12 0 0 Z " fill="#E7E8E8" transform="translate(613,534)"/>
<path d="M0 0 C0.66 0.33 1.32 0.66 2 1 C-1.08 4.67 -3.25 5.57 -8 6 C-5.63 3.38 -3.14 1.61 0 0 Z " fill="#E4E6E7" transform="translate(445,325)"/>
<path d="M0 0 C1.32 0.33 2.64 0.66 4 1 C4.33 2.65 4.66 4.3 5 6 C2.08 4.93 0.22 4.22 -2 2 C-1.34 2 -0.68 2 0 2 C0 1.34 0 0.68 0 0 Z " fill="#E6E8E7" transform="translate(609,224)"/>
<path d="M0 0 C1.65 0 3.3 0 5 0 C5 0.66 5 1.32 5 2 C6.32 2 7.64 2 9 2 C9 2.99 9 3.98 9 5 C5.54 3.75 2.85 2.32 0 0 Z " fill="#E6E8E8" transform="translate(439,814)"/>
<path d="M0 0 C3.3 1.65 6.6 3.3 10 5 C9.01 5.66 8.02 6.32 7 7 C7 6.34 7 5.68 7 5 C6.22 4.92 5.43 4.84 4.62 4.75 C3.76 4.5 2.89 4.25 2 4 C1.34 2.68 0.68 1.36 0 0 Z " fill="#E5E6E6" transform="translate(414,780)"/>
<path d="M0 0 C0.66 0.33 1.32 0.66 2 1 C0.62 2.5 0.62 2.5 -1 4 C-1.66 4 -2.32 4 -3 4 C-3 4.66 -3 5.32 -3 6 C-3.99 6.33 -4.98 6.66 -6 7 C-5.81 5.19 -5.81 5.19 -5 3 C-2.56 1.19 -2.56 1.19 0 0 Z " fill="#E7EAE9" transform="translate(628,771)"/>
<path d="M0 0 C0.66 0 1.32 0 2 0 C2 0.99 2 1.98 2 3 C2.99 3.66 3.98 4.32 5 5 C4.67 5.66 4.34 6.32 4 7 C2.68 7 1.36 7 0 7 C-0.93 3.99 -1.04 3.13 0 0 Z " fill="#E3E5E6" transform="translate(639,381)"/>
<path d="M0 0 C2.36 0.94 4.7 1.93 7 3 C5.02 3.99 5.02 3.99 3 5 C1.35 3.68 -0.3 2.36 -2 1 C-1.34 0.67 -0.68 0.34 0 0 Z " fill="#E7E8E8" transform="translate(407,793)"/>
<path d="M0 0 C0.33 0.66 0.66 1.32 1 2 C0.06 4.62 0.06 4.62 -1 7 C-1.99 6.34 -2.98 5.68 -4 5 C-2.25 1.12 -2.25 1.12 0 0 Z " fill="#E7EAE9" transform="translate(358,378)"/>
<path d="M0 0 C0.33 1.32 0.66 2.64 1 4 C-1.92 2.93 -3.78 2.22 -6 0 C-3.51 -1.25 -2.59 -0.78 0 0 Z " fill="#E8EAEB" transform="translate(618,364)"/>
<path d="M0 0 C-0.33 0.99 -0.66 1.98 -1 3 C-4.2 4.37 -6.7 3.83 -10 3 C-10 2.67 -10 2.34 -10 2 C-8.71 1.66 -7.42 1.33 -6.12 1 C-5.41 0.81 -4.69 0.63 -3.95 0.44 C-2 0 -2 0 0 0 Z " fill="#373F48" transform="translate(522,855)"/>
<path d="M0 0 C0.66 0.33 1.32 0.66 2 1 C-2.3 5 -2.3 5 -4 6 C-6.2 5.65 -6.2 5.65 -8 5 C-6.71 4.14 -5.42 3.28 -4.12 2.44 C-3.05 1.72 -3.05 1.72 -1.95 1 C-1.3 0.67 -0.66 0.34 0 0 Z " fill="#E2E4E4" transform="translate(578,554)"/>
<path d="M0 0 C0 0.99 0 1.98 0 3 C-1.65 3.66 -3.3 4.32 -5 5 C-5.66 4.34 -6.32 3.68 -7 3 C-2.25 0 -2.25 0 0 0 Z " fill="#E7EAE9" transform="translate(349,248)"/>
<path d="M0 0 C0.99 0.33 1.98 0.66 3 1 C0.44 3.01 -2.05 4.63 -5 6 C-5 5.01 -5 4.02 -5 3 C-4.01 3 -3.02 3 -2 3 C-2 2.34 -2 1.68 -2 1 C-1.34 0.67 -0.68 0.34 0 0 Z " fill="#E8E9EA" transform="translate(386,243)"/>
<path d="M0 0 C0 0.99 0 1.98 0 3 C-2 5 -2 5 -4.62 5.12 C-5.41 5.08 -6.19 5.04 -7 5 C-2.25 1.12 -2.25 1.12 0 0 Z " fill="#E3E5E5" transform="translate(461,182)"/>
</svg>
