<svg width="100" height="100" viewBox="0 0 100 100" fill="none" xmlns="http://www.w3.org/2000/svg">
  <!-- DevCatalyst Logo - Interlocking hexagonal shapes with security element -->
  <g transform="translate(10,15) scale(0.8)">
    <!-- Top hexagon -->
    <path d="M25 20 L45 10 L65 20 L65 40 L45 50 L25 40 Z" 
          stroke="currentColor" stroke-width="3" fill="none" stroke-linejoin="round"/>
    
    <!-- Bottom left hexagon -->
    <path d="M10 45 L30 35 L50 45 L50 65 L30 75 L10 65 Z" 
          stroke="currentColor" stroke-width="3" fill="none" stroke-linejoin="round"/>
    
    <!-- Bottom right hexagon -->
    <path d="M40 45 L60 35 L80 45 L80 65 L60 75 L40 65 Z" 
          stroke="currentColor" stroke-width="3" fill="none" stroke-linejoin="round"/>
    
    <!-- Center diamond/rhombus -->
    <path d="M35 35 L45 25 L55 35 L45 45 Z" 
          stroke="currentColor" stroke-width="3" fill="none" stroke-linejoin="round"/>
    
    <!-- Security lock element -->
    <g transform="translate(5,50)">
      <!-- Lock body -->
      <rect x="0" y="6" width="8" height="10" rx="1" 
            stroke="currentColor" stroke-width="2" fill="none"/>
      <!-- Lock shackle -->
      <path d="M2 6 L2 3 C2 1 3 0 4 0 C5 0 6 1 6 3 L6 6" 
            stroke="currentColor" stroke-width="2" fill="none" stroke-linecap="round"/>
      <!-- Keyhole -->
      <circle cx="4" cy="10" r="1" fill="currentColor"/>
    </g>
  </g>
</svg>
